# Blender 3.6.4
# www.blender.org
mtllib gem.mtl
o submesh_0
v -0.077880 0.152380 0.088810
v -0.074480 0.145370 0.088790
v -0.143840 0.375760 0.003800
v 0.143840 0.375760 -0.003800
v 0.143840 0.375760 0.003800
v 0.003960 0.485530 -0.003750
v 0.003960 0.000470 -0.003750
v -0.003960 0.000470 0.003750
v 0.003960 0.000470 0.003750
v 0.147280 0.368520 0.003770
v 0.147280 0.368520 -0.003770
v 0.003960 0.485530 0.003750
v -0.143840 0.110240 -0.003800
v -0.147280 0.117480 -0.003770
v 0.070890 0.151430 0.092110
v -0.070890 0.334570 0.092110
v -0.147280 0.117480 0.003770
v -0.147280 0.368520 0.003770
v 0.147280 0.117480 0.003770
v 0.070890 0.334570 0.092110
v 0.077880 0.333620 0.088810
v -0.003860 0.087710 0.088780
v 0.143840 0.110240 0.003800
v 0.143840 0.110240 -0.003800
v -0.003860 0.398290 -0.088780
v -0.003860 0.087710 -0.088780
v -0.074480 0.145370 -0.088790
v 0.003860 0.087710 -0.088780
v 0.003860 0.398290 -0.088780
v 0.000000 0.392350 -0.092110
v -0.003860 0.398290 0.088780
v -0.003960 0.485530 0.003750
v 0.074480 0.340630 0.088790
v -0.143840 0.110240 0.003800
v 0.077880 0.333620 -0.088810
v 0.070890 0.334570 -0.092110
v -0.003960 0.000470 -0.003750
v 0.077880 0.152380 -0.088810
v 0.147280 0.117480 -0.003770
v 0.074480 0.340630 -0.088790
v -0.003960 0.485530 -0.003750
v -0.143840 0.375760 -0.003800
v -0.074480 0.340630 -0.088790
v -0.077880 0.333620 -0.088810
v -0.147280 0.368520 -0.003770
v -0.070890 0.151430 0.092110
v 0.000000 0.093650 -0.092110
v 0.074480 0.145370 0.088790
v 0.077880 0.152380 0.088810
v -0.070890 0.334570 -0.092110
v 0.000000 0.093650 0.092110
v 0.003860 0.087710 0.088780
v 0.074480 0.145370 -0.088790
v 0.070890 0.151430 -0.092110
v 0.000000 0.392350 0.092110
v 0.003860 0.398290 0.088780
v -0.077880 0.152380 -0.088810
v -0.070890 0.151430 -0.092110
v -0.077880 0.333620 0.088810
v -0.074480 0.340630 0.088790
vn -0.4652 -0.2467 0.8501
vn -0.4800 -0.2119 0.8513
vn -0.0187 -0.0225 0.9996
vn -0.4950 -0.5763 -0.6503
vn -0.4476 -0.6029 -0.6604
vn -0.4476 -0.6029 0.6605
vn -0.4948 -0.5765 0.6502
vn 0.0492 -0.4985 -0.8655
vn 0.4476 -0.6029 -0.6604
vn -0.0492 -0.4986 -0.8654
vn 0.7699 -0.0070 -0.6381
vn 0.7691 0.0089 -0.6390
vn 0.7694 0.0082 0.6387
vn 0.7691 -0.0089 0.6390
vn -0.7694 -0.0081 0.6387
vn -0.7692 -0.0088 -0.6390
vn -0.7699 0.0070 -0.6381
vn -0.7691 0.0089 0.6390
vn 0.4653 0.2466 0.8501
vn 0.4948 0.5766 0.6502
vn 0.4807 0.2117 0.8510
vn -0.4943 0.5774 0.6498
vn -0.4948 0.5765 -0.6502
vn -0.0492 0.4986 0.8654
vn -0.4796 0.2120 0.8515
vn -0.4442 0.2160 0.8695
vn -0.0000 0.0044 1.0000
vn -0.4655 -0.2472 -0.8498
vn -0.4653 0.2467 -0.8501
vn -0.0192 0.0213 -0.9996
vn -0.4445 -0.2156 -0.8695
vn -0.4805 0.2117 -0.8511
vn -0.0492 0.4985 -0.8655
vn -0.0000 0.0044 -1.0000
vn -0.4476 0.6029 -0.6605
vn -0.4476 0.6029 0.6604
vn 0.4476 0.6029 0.6604
vn 0.4476 0.6029 -0.6604
vn -0.4654 0.2473 0.8498
vn 0.4943 -0.5774 0.6498
vn 0.4948 -0.5765 -0.6502
vn 0.4799 -0.2119 -0.8513
vn -0.0000 -0.0044 -1.0000
vn 0.0187 -0.0225 -0.9996
vn -0.4801 -0.2118 -0.8512
vn 0.4476 -0.6029 0.6604
vn 0.4950 0.5763 -0.6503
vn -0.0492 -0.4985 0.8655
vn -0.0000 -0.0044 1.0000
vn 0.0492 0.4986 -0.8654
vn 0.4800 0.2119 -0.8513
vn 0.4445 0.2156 -0.8695
vn 0.0194 0.0207 0.9996
vn 0.4445 -0.2156 0.8695
vn 0.4654 -0.2473 0.8498
vn 0.0492 -0.4986 0.8654
vn 0.4795 -0.2120 0.8515
vn 0.4655 0.2472 -0.8498
vn 0.4652 -0.2467 -0.8501
vn 0.0492 0.4985 0.8655
vt 0.714416 0.481143
vt 0.721016 0.493397
vt 0.707190 0.492777
vt 0.536288 0.881204
vt 0.865215 0.771494
vt 0.874187 0.759197
vt 0.875611 0.411991
vt 0.730709 0.653640
vt 0.722181 0.665296
vt 0.868875 0.399345
vt 0.478730 0.116526
vt 0.133307 0.582633
vt 0.521197 0.878639
vt 0.286664 0.511454
vt 0.126529 0.569890
vt 0.280031 0.499068
vt 0.463627 0.113992
vt 0.280117 0.321462
vt 0.441133 0.283580
vt 0.446328 0.295961
vt 0.285178 0.333626
vt 0.548750 0.700805
vt 0.293831 0.500016
vt 0.558167 0.690983
vt 0.271491 0.332988
vt 0.126862 0.227390
vt 0.135898 0.215281
vt 0.455861 0.286040
vt 0.717037 0.653133
vt 0.563466 0.703294
vt 0.455861 0.286039
s 1
usemtl 0.dds
f 1/1/1 2/2/2 46/3/3
f 13/4/4 37/5/5 8/6/6 34/7/7
f 28/8/8 7/6/9 37/5/5 26/9/10
f 39/10/11 11/11/12 10/12/13 19/13/14
f 13/4/4 34/7/7 17/10/15 14/13/16
f 45/12/17 14/13/16 17/10/15 18/11/18
f 21/14/19 10/12/13 5/15/20 33/16/21
f 18/11/18 3/17/22 42/15/23 45/12/17
f 31/18/24 60/19/25 16/20/26 55/21/27
f 57/22/28 44/14/29 50/23/30 58/24/31
f 43/16/32 25/25/33 30/21/34 50/23/30
f 41/26/35 42/15/23 3/17/22 32/27/36
f 32/27/36 12/26/37 6/27/38 41/26/35
f 59/28/39 1/1/1 46/3/3 16/20/26
f 19/13/14 23/4/40 24/7/41 39/10/11
f 53/2/42 28/8/8 47/29/43 54/3/44
f 26/9/10 27/30/45 58/24/31 47/29/43
f 7/6/9 24/7/41 23/4/40 9/5/46
f 4/17/47 6/27/38 12/26/37 5/15/20
f 2/2/2 22/8/48 51/29/49 46/3/3
f 29/18/50 40/19/51 36/20/52 30/21/34
f 20/23/53 15/24/54 49/22/55 21/14/19
f 52/9/56 48/30/57 15/24/54 51/29/49
f 54/3/44 36/20/52 35/31/58 38/1/59
f 57/22/28 14/13/16 45/12/17 44/14/29
f 53/2/42 24/7/41 7/6/9 28/8/8
f 25/25/33 41/26/35 6/27/38 29/18/50
f 43/16/32 42/15/23 41/26/35 25/25/33
f 44/14/29 45/12/17 42/15/23 43/16/32
f 59/28/39 18/11/18 17/10/15 1/1/1
f 27/30/45 13/4/4 14/13/16 57/22/28
f 37/5/5 13/4/4 27/30/45 26/9/10
f 56/25/60 12/26/37 32/27/36 31/18/24
f 33/16/21 5/15/20 12/26/37 56/25/60
f 40/19/51 4/17/47 11/11/12 35/31/58
f 35/31/58 11/11/12 39/10/11 38/1/59
f 33/16/21 56/25/60 55/21/27 20/23/53
f 40/19/51 35/31/58 36/20/52
f 32/27/36 3/17/22 60/19/25 31/18/24
f 22/8/48 8/6/6 9/5/46 52/9/56
f 2/2/2 34/7/7 8/6/6 22/8/48
f 1/1/1 17/10/15 34/7/7 2/2/2
f 29/18/50 6/27/38 4/17/47 40/19/51
f 48/30/57 23/4/40 19/13/14 49/22/55
f 52/9/56 9/5/46 23/4/40 48/30/57
f 4/17/47 5/15/20 10/12/13 11/11/12
f 38/1/59 39/10/11 24/7/41 53/2/42
f 49/22/55 19/13/14 10/12/13 21/14/19
f 60/19/25 3/17/22 18/11/18 59/28/39
f 26/9/10 47/29/43 28/8/8
f 36/20/52 54/3/44 47/29/43 30/21/34
f 46/3/3 51/29/49 55/21/27 16/20/26
f 15/24/54 48/30/57 49/22/55
f 43/16/32 50/23/30 44/14/29
f 20/23/53 21/14/19 33/16/21
f 30/21/34 25/25/33 29/18/50
f 51/29/49 22/8/48 52/9/56
f 38/1/59 53/2/42 54/3/44
f 31/18/24 55/21/27 56/25/60
f 27/30/45 57/22/28 58/24/31
f 59/28/39 16/20/26 60/19/25
f 7/6/9 9/5/46 8/6/6 37/5/5
f 58/24/31 50/23/30 30/21/34 47/29/43
f 20/23/53 55/21/27 51/29/49 15/24/54
